<svg xmlns="http://www.w3.org/2000/svg" width="212" height="84" viewBox="0 0 294 110" fill="none" class="logoW"><path d="M105 6V5H104V6L105 6Z" fill="white"></path><path d="M12 5V6H14V5H12Z" fill="white"></path><path d="M16 5V6H18V5H16Z" fill="white"></path><path d="M20 5V6H22V5H20Z" fill="white"></path><path d="M24 5V6H26V5H24Z" fill="white"></path><path d="M28 5V6H30V5H28Z" fill="white"></path><path d="M32 5V6H34V5H32Z" fill="white"></path><path d="M36 5V6H38V5H36Z" fill="white"></path><path d="M40 5V6H42V5H40Z" fill="white"></path><path d="M44 5V6H46V5H44Z" fill="white"></path><path d="M48 5V6H50V5H48Z" fill="white"></path><path d="M52 5V6H54V5H52Z" fill="white"></path><path d="M56 5V6H58V5H56Z" fill="white"></path><path d="M60 5V6H62V5H60Z" fill="white"></path><path d="M64 5V6H66V5H64Z" fill="white"></path><path d="M68 5V6H70V5H68Z" fill="white"></path><path d="M72 5V6H74V5H72Z" fill="white"></path><path d="M76 5V6H78V5H76Z" fill="white"></path><path d="M80 5V6H82V5H80Z" fill="white"></path><path d="M84 5V6H86V5H84Z" fill="white"></path><path d="M88 5V6H90V5H88Z" fill="white"></path><path d="M92 5V6H94V5H92Z" fill="white"></path><path d="M96 5V6H98V5H96Z" fill="white"></path><path d="M100 5V6H102V5H100Z" fill="white"></path><path d="M105 8H104V10H105V8Z" fill="white"></path><path d="M105 12H104V14H105V12Z" fill="white"></path><path d="M105 16H104V18H105V16Z" fill="white"></path><path d="M105 20H104V22H105V20Z" fill="white"></path><path d="M105 24H104V26H105V24Z" fill="white"></path><path d="M105 28H104V30H105V28Z" fill="white"></path><path d="M105 32H104V34H105V32Z" fill="white"></path><path d="M105 36H104V38H105V36Z" fill="white"></path><path d="M105 40H104V42H105V40Z" fill="white"></path><path d="M105 44H104V46H105V44Z" fill="white"></path><path d="M105 48H104V50H105V48Z" fill="white"></path><path d="M105 52H104V54H105V52Z" fill="white"></path><path d="M105 56H104V58H105V56Z" fill="white"></path><path d="M105 60H104V62H105V60Z" fill="white"></path><path d="M105 64H104V66H105V64Z" fill="white"></path><path d="M105 68H104V70H105V68Z" fill="white"></path><path d="M105 72H104V74H105V72Z" fill="white"></path><path d="M105 76H104V78H105V76Z" fill="white"></path><path d="M105 80H104V82H105V80Z" fill="white"></path><path d="M105 84H104V86H105V84Z" fill="white"></path><path d="M105 88H104V90H105V88Z" fill="white"></path><path d="M105 92H104V94H105V92Z" fill="white"></path><path d="M105 96H104V98H105V96Z" fill="white"></path><path d="M32.0858 41.64V69H34.8788V56.707H45.5188V53.933H34.8788V44.433H47.6585L54.7556 69H57.5676L63.9896 46.561L70.4496 69H73.2616L81.1466 41.64H78.2206L71.8556 64.231L65.4526 41.64L62.5266 41.659L56.1616 64.231L49.7586 41.64H32.0858Z" fill="white"></path><path d="M98 105V104H96V105H98Z" fill="white"></path><path d="M94 105V104H92V105H94Z" fill="white"></path><path d="M90 105V104H88V105H90Z" fill="white"></path><path d="M86 105V104H84V105H86Z" fill="white"></path><path d="M82 105V104H80V105H82Z" fill="white"></path><path d="M78 105V104H76V105H78Z" fill="white"></path><path d="M74 105V104H72V105H74Z" fill="white"></path><path d="M70 105V104H68V105H70Z" fill="white"></path><path d="M66 105V104H64V105H66Z" fill="white"></path><path d="M62 105V104H60V105H62Z" fill="white"></path><path d="M58 105V104H56V105H58Z" fill="white"></path><path d="M54 105V104H52V105H54Z" fill="white"></path><path d="M50 105V104H48V105H50Z" fill="white"></path><path d="M46 105V104H44V105H46Z" fill="white"></path><path d="M42 105V104H40V105H42Z" fill="white"></path><path d="M38 105V104H36V105H38Z" fill="white"></path><path d="M34 105V104H32V105H34Z" fill="white"></path><path d="M30 105V104H28V105H30Z" fill="white"></path><path d="M26 105V104H24V105H26Z" fill="white"></path><path d="M22 105V104H20V105H22Z" fill="white"></path><path d="M18 105V104H16V105H18Z" fill="white"></path><path d="M14 105V104H12V105H14Z" fill="white"></path><path d="M10 105V104H8V105H10Z" fill="white"></path><path d="M6 105V104H5V105H6Z" fill="white"></path><path d="M5 102H6V100H5V102Z" fill="white"></path><path d="M5 98H6V96H5V98Z" fill="white"></path><path d="M5 94H6V92H5V94Z" fill="white"></path><path d="M5 90H6V88H5V90Z" fill="white"></path><path d="M5 86H6V84H5V86Z" fill="white"></path><path d="M5 82H6V80H5V82Z" fill="white"></path><path d="M5 78H6V76H5V78Z" fill="white"></path><path d="M5 74H6V72H5V74Z" fill="white"></path><path d="M5 70H6V68H5V70Z" fill="white"></path><path d="M5 66H6V64H5V66Z" fill="white"></path><path d="M5 62H6V60H5V62Z" fill="white"></path><path d="M5 58H6V56H5V58Z" fill="white"></path><path d="M5 54H6V52H5V54Z" fill="white"></path><path d="M5 50H6V48H5V50Z" fill="white"></path><path d="M5 46H6V44H5V46Z" fill="white"></path><path d="M5 42H6V40H5V42Z" fill="white"></path><path d="M5 38H6V36H5V38Z" fill="white"></path><path d="M5 34H6V32H5V34Z" fill="white"></path><path d="M5 30H6V28H5V30Z" fill="white"></path><path d="M5 26H6V24H5V26Z" fill="white"></path><path d="M5 22H6V20H5V22Z" fill="white"></path><path d="M5 18H6V16H5V18Z" fill="white"></path><path d="M5 14H6V12H5V14Z" fill="white"></path><path fill-rule="evenodd" clip-rule="evenodd" d="M104 100H100V104H102V105H100V110H0V10H5V8H6V10H10V6H8V5H10L10 0H110V100H105V102H104V100ZM11 1H109V99H100V10H11V1ZM99 11V99H11V11H99ZM10 11H1V109H99V100H10L10 11Z" fill="white"></path><path d="M5 6V5H6L6 6H5Z" fill="white"></path><path d="M105 104H104V105H105V104Z" fill="white"></path><path d="M127.74 50.2188C127.74 48.806 127.627 47.5664 127.399 46.5C128.265 46.5 130.028 46.5638 132.69 46.6914V48.3457C133 48.8288 133.542 49.0703 134.317 49.0703C135.091 49.0703 135.62 48.8014 135.903 48.2637C136.185 47.7259 136.326 46.9329 136.326 45.8848C136.326 44.8366 136.253 44.2487 136.108 44.1211C133.118 44.2396 130.634 44.3125 128.656 44.3398C127.946 44.349 126.879 44.3581 125.457 44.3672C124.035 44.3763 122.937 44.3854 122.162 44.3945C122.135 44.5586 122.121 44.8457 122.121 45.2559C122.121 45.6569 122.19 45.9486 122.326 46.1309C122.791 46.2767 123.106 46.459 123.27 46.6777C123.443 46.8874 123.53 47.3021 123.53 47.9219V55.4004C123.53 58.6999 123.393 61.5664 123.119 64C123.411 64.237 124.108 64.3555 125.211 64.3555C126.323 64.3555 127.267 64.237 128.041 64C127.795 62.5508 127.672 60.9284 127.672 59.1328L127.699 55.2363C129.222 55.4186 130.384 55.5098 131.186 55.5098C131.988 55.5098 132.64 55.4733 133.141 55.4004C133.232 54.8809 133.278 54.3522 133.278 53.8145C133.278 53.2767 133.205 52.9212 133.059 52.748L127.699 53.0488L127.74 50.5059V50.2188Z" fill="white"></path><path d="M146.41 52.4883C147.121 52.4883 147.476 53.2676 147.476 54.8262V54.9902C147.64 55.0176 147.804 55.0312 147.968 55.0312C148.734 55.0312 149.386 54.7852 149.923 54.293C150.47 53.7917 150.744 53.1673 150.744 52.4199C150.744 51.4447 150.466 50.7064 149.91 50.2051C149.363 49.6947 148.634 49.4395 147.722 49.4395C147.276 49.4395 146.852 49.5169 146.451 49.6719C145.612 49.9909 144.582 50.8932 143.361 52.3789C143.334 51.9323 143.292 51.4629 143.238 50.9707C143.192 50.4785 143.037 50.0046 142.773 49.5488C142.618 49.5397 142.381 49.5352 142.062 49.5352C140.13 49.5352 138.507 49.9043 137.195 50.6426C137.186 50.7246 137.181 50.8385 137.181 50.9844C137.181 51.1211 137.213 51.3262 137.277 51.5996C137.833 51.6452 138.275 51.7181 138.603 51.8184C139.086 51.946 139.328 52.3561 139.328 53.0488V56.248C139.328 59.9212 139.273 62.5143 139.164 64.0273C139.628 64.2005 140.18 64.2871 140.818 64.2871C141.465 64.2871 142.294 64.2005 143.306 64.0273C143.361 58.3672 143.388 55.0814 143.388 54.1699C143.935 53.6413 144.445 53.2311 144.919 52.9395C145.393 52.6387 145.89 52.4883 146.41 52.4883Z" fill="white"></path><path fill-rule="evenodd" clip-rule="evenodd" d="M165.489 60.8691L165.571 56.2754C165.571 54.6803 165.393 53.3678 165.038 52.3379C164.737 51.4538 164.231 50.7747 163.52 50.3008C162.736 49.763 161.497 49.4941 159.802 49.4941C158.179 49.4941 156.735 49.7448 155.468 50.2461C154.83 50.5013 154.319 50.8613 153.936 51.3262C153.554 51.791 153.362 52.2878 153.362 52.8164C153.362 53.3451 153.512 53.7552 153.813 54.0469C154.123 54.3385 154.533 54.4844 155.044 54.4844C155.563 54.4844 156.083 54.3613 156.602 54.1152C156.912 53.9603 157.067 53.8281 157.067 53.7188C157.067 52.8984 157.231 52.2786 157.559 51.8594C157.897 51.4401 158.366 51.2305 158.968 51.2305C159.97 51.2305 160.654 51.4766 161.018 51.9688C161.392 52.4609 161.579 53.1901 161.579 54.1562C161.579 54.5846 161.547 55.168 161.483 55.9062L159.897 55.9609C157.91 56.0156 156.201 56.3665 154.77 57.0137C154.023 57.3509 153.43 57.8158 152.993 58.4082C152.565 58.9915 152.35 59.6751 152.35 60.459C152.35 61.9264 152.843 62.9792 153.827 63.6172C154.283 63.918 154.775 64.1367 155.304 64.2734C155.841 64.4102 156.42 64.4785 157.04 64.4785C157.669 64.4785 158.416 64.3236 159.282 64.0137C160.157 63.7129 161.014 63.2708 161.852 62.6875C162.335 63.8815 163.183 64.4785 164.395 64.4785C165.617 64.4785 166.792 63.7585 167.923 62.3184C167.904 62.209 167.836 62.0586 167.718 61.8672C167.608 61.6667 167.49 61.5117 167.362 61.4023C166.952 61.6393 166.565 61.7578 166.2 61.7578C165.726 61.7578 165.489 61.5072 165.489 61.0059V60.8691ZM161.305 59.5293C161.305 60.0124 161.365 60.5866 161.483 61.252C160.599 61.7806 159.683 62.0449 158.735 62.0449C157.796 62.0449 157.172 61.89 156.862 61.5801C156.552 61.2702 156.397 60.7598 156.397 60.0488C156.397 59.3379 156.662 58.7454 157.19 58.2715C157.719 57.7975 158.471 57.5605 159.446 57.5605L161.346 57.4785C161.319 58.3535 161.305 59.0371 161.305 59.5293Z" fill="white"></path><path d="M181.26 56.1113L181.246 56.9453L181.068 63.1113C181.068 63.5033 181.073 63.7904 181.082 63.9727C181.729 64.1185 182.354 64.1914 182.955 64.1914C183.566 64.1914 184.359 64.0547 185.334 63.7812C185.225 62.9792 185.143 59.7207 185.088 54.0059C186.373 52.903 187.604 52.3516 188.779 52.3516C189.399 52.3516 189.828 52.6022 190.065 53.1035C190.302 53.6048 190.42 54.5482 190.42 55.9336L190.242 60.7871C190.242 63.3027 191.031 64.5605 192.607 64.5605C193.574 64.5605 194.8 64.0957 196.285 63.166C196.313 63.084 196.326 62.9518 196.326 62.7695C196.326 62.5872 196.267 62.3548 196.149 62.0723C196.03 62.1087 195.807 62.127 195.479 62.127C195.16 62.127 194.831 62.0632 194.494 61.9355C194.157 61.8079 193.988 61.6257 193.988 61.3887C193.988 60.222 194.052 58.9186 194.18 57.4785C194.307 56.0293 194.371 54.9128 194.371 54.1289C194.371 52.224 194.016 50.9434 193.305 50.2871C192.658 49.7038 191.764 49.4121 190.625 49.4121C188.593 49.4121 186.738 50.3646 185.061 52.2695C184.988 51.2122 184.587 50.4603 183.857 50.0137C183.511 49.804 183.137 49.6536 182.736 49.5625C182.344 49.4622 181.898 49.4121 181.397 49.4121C180.895 49.4121 180.38 49.4896 179.852 49.6445C178.703 49.9909 177.341 50.8841 175.764 52.3242C175.727 52.069 175.673 51.627 175.6 50.998C175.527 50.36 175.385 49.877 175.176 49.5488C174.848 49.5306 174.597 49.5215 174.424 49.5215C172.51 49.5215 170.874 49.9134 169.516 50.6973C169.507 50.7702 169.502 50.8522 169.502 50.9434C169.502 51.0345 169.511 51.1439 169.529 51.2715C169.538 51.3171 169.548 51.3809 169.557 51.4629C169.575 51.5358 169.589 51.5996 169.598 51.6543C170.163 51.6999 170.6 51.7728 170.91 51.873C171.421 51.9824 171.676 52.3835 171.676 53.0762C171.74 54.9264 171.772 56.6992 171.772 58.3945C171.772 60.0807 171.712 61.9583 171.594 64.0273C172.05 64.2005 172.628 64.2871 173.33 64.2871C174.032 64.2871 174.861 64.1914 175.818 64C175.828 62.2409 175.832 60.3359 175.832 58.2852C175.832 56.2253 175.828 54.9173 175.818 54.3613C176.666 53.6504 177.354 53.1354 177.883 52.8164C178.412 52.4883 178.899 52.3242 179.346 52.3242C180.084 52.3242 180.585 52.5794 180.85 53.0898C181.123 53.6003 181.26 54.6074 181.26 56.1113Z" fill="white"></path><path fill-rule="evenodd" clip-rule="evenodd" d="M204.345 61.3613C203.452 60.5319 202.869 59.4427 202.595 58.0938L210.744 57.4785C211.773 57.3965 212.288 56.5762 212.288 55.0176C212.288 54.1061 212.106 53.2904 211.742 52.5703C211.386 51.8411 210.908 51.2487 210.306 50.793C209.057 49.8724 207.581 49.4121 205.876 49.4121C203.935 49.4121 202.212 50.0638 200.708 51.3672C199.988 51.987 199.41 52.7845 198.972 53.7598C198.535 54.7259 198.316 55.806 198.316 57C198.316 58.194 198.53 59.2832 198.958 60.2676C199.387 61.2428 199.966 62.0312 200.695 62.6328C201.433 63.2344 202.267 63.6901 203.197 64C204.126 64.319 205.024 64.4785 205.89 64.4785C206.765 64.4785 207.535 64.3919 208.201 64.2188C209.841 63.7995 211.081 63.1022 211.919 62.127C211.819 61.7168 211.541 61.3613 211.085 61.0605C209.873 62.0905 208.67 62.6055 207.476 62.6055C206.282 62.6055 205.238 62.1908 204.345 61.3613ZM207.708 52.0645C208.31 52.6751 208.611 53.5228 208.611 54.6074C208.611 54.9082 208.583 55.2227 208.529 55.5508C206.697 55.8242 204.646 56.084 202.376 56.3301C202.376 54.7077 202.627 53.4408 203.128 52.5293C203.63 51.6087 204.368 51.1484 205.343 51.1484C206.318 51.1484 207.107 51.4538 207.708 52.0645Z" fill="white"></path><path d="M216.206 59.5977C215.814 59.5977 215.513 59.6159 215.303 59.6523C214.702 59.7799 214.333 60.0944 214.196 60.5957C214.032 61.1882 214.146 61.7715 214.538 62.3457C214.684 62.5645 214.861 62.7741 215.071 62.9746C215.29 63.1751 215.563 63.3665 215.891 63.5488C216.228 63.7311 216.721 63.9316 217.368 64.1504C218.015 64.3691 218.972 64.4785 220.239 64.4785C222.153 64.4785 223.684 64.1139 224.833 63.3848C225.99 62.6465 226.569 61.5938 226.569 60.2266C226.569 58.6497 225.544 57.3646 223.493 56.3711C223.165 56.207 222.417 55.8926 221.251 55.4277C220.093 54.9629 219.309 54.5436 218.899 54.1699C218.498 53.7962 218.298 53.3268 218.298 52.7617C218.298 52.1875 218.462 51.7546 218.79 51.4629C219.127 51.1621 219.583 51.0117 220.157 51.0117C221.816 51.0117 222.645 51.8639 222.645 53.5684V53.7188C222.645 53.737 222.791 53.8281 223.083 53.9922C223.374 54.1471 223.88 54.2246 224.6 54.2246C225.612 54.2246 226.118 53.7051 226.118 52.666C226.118 51.7363 225.585 50.9525 224.518 50.3145C223.461 49.6764 222.162 49.3574 220.622 49.3574C218.279 49.3574 216.616 49.9544 215.631 51.1484C215.112 51.7865 214.852 52.5703 214.852 53.5C214.889 55.5508 216.42 57.1185 219.446 58.2031C219.783 58.3307 220.048 58.431 220.239 58.5039C221.387 58.9505 222.094 59.4199 222.358 59.9121C222.714 60.5775 222.759 61.2201 222.495 61.8398C222.185 62.5143 221.529 62.8516 220.526 62.8516C219.523 62.8516 218.803 62.5781 218.366 62.0312C218.165 61.7852 218.015 61.5163 217.915 61.2246C217.824 60.9329 217.778 60.6868 217.778 60.4863C217.778 60.2858 217.783 60.1491 217.792 60.0762C217.135 59.7572 216.607 59.5977 216.206 59.5977Z" fill="white"></path><path d="M241.793 44.5996C240.927 44.5996 240.061 44.9049 239.195 45.5156C239.715 46.7279 240.166 47.8672 240.549 48.9336C239.893 50.8021 238.931 54.6758 237.664 60.5547C237.081 58.6406 236.388 56.2617 235.586 53.418C234.793 50.5742 234.173 48.4095 233.726 46.9238C233.28 45.429 232.965 44.5859 232.783 44.3945C232.637 44.3854 232.409 44.3809 232.1 44.3809C230.313 44.3809 228.759 44.75 227.437 45.4883C227.428 45.543 227.424 45.666 227.424 45.8574C227.424 46.0397 227.497 46.3086 227.643 46.6641C227.688 46.6641 227.784 46.6686 227.93 46.6777L228.367 46.7051C228.522 46.7142 228.682 46.7689 228.846 46.8691C229.283 47.1426 229.857 48.1543 230.568 49.9043C231.288 51.6452 231.954 53.4909 232.564 55.4414C233.175 57.3828 233.754 59.2148 234.301 60.9375C234.848 62.651 235.189 63.6081 235.326 63.8086C235.463 64 235.732 64.1549 236.133 64.2734C236.534 64.401 236.953 64.4648 237.391 64.4648C237.828 64.4648 238.206 64.4329 238.525 64.3691C238.872 63.6491 239.254 62.4277 239.674 60.7051C240.093 58.9824 240.49 57.319 240.863 55.7148C241.237 54.1107 241.542 53.0716 241.779 52.5977C242.016 53.2904 242.568 55.2546 243.434 58.4902C244.299 61.7168 244.837 63.4805 245.047 63.7812C245.202 63.9909 245.489 64.1549 245.908 64.2734C246.337 64.401 246.774 64.4648 247.221 64.4648C247.676 64.4648 248.064 64.4329 248.383 64.3691C248.611 63.8314 249.162 62.5326 250.037 60.4727C250.921 58.4036 251.555 56.8997 251.937 55.9609C252.32 55.0221 252.803 53.7917 253.387 52.2695C253.97 50.7474 254.385 49.5169 254.631 48.5781C254.877 47.6393 255 46.8783 255 46.2949C255 45.7116 254.745 45.1556 254.234 44.627C253.724 44.0983 253.054 43.834 252.225 43.834C251.951 43.834 251.682 43.875 251.418 43.957C251.154 44.0299 251.021 44.112 251.021 44.2031C251.185 44.4492 251.268 44.7409 251.268 45.0781C251.268 45.4154 251.258 45.6569 251.24 45.8027C251.149 46.7142 249.919 51.6042 247.549 60.4727C246.783 58.3398 246.172 56.043 245.717 53.582C245.534 52.5977 245.302 51.3581 245.019 49.8633C244.746 48.3685 244.413 47.1699 244.021 46.2676C243.538 45.1556 242.796 44.5996 241.793 44.5996Z" fill="white"></path><path d="M260.38 42.3711C259.751 42.3711 259.168 42.599 258.63 43.0547C258.056 43.5833 257.769 44.1758 257.769 44.832C257.769 45.4883 257.96 46.026 258.343 46.4453C258.735 46.8646 259.268 47.0742 259.943 47.0742C260.626 47.0742 261.232 46.8372 261.761 46.3633C262.29 45.8802 262.554 45.2878 262.554 44.5859C262.554 43.8841 262.349 43.3418 261.939 42.959C261.529 42.5671 261.009 42.3711 260.38 42.3711Z" fill="white"></path><path d="M257.536 51.8184C258.019 51.946 258.261 52.3561 258.261 53.0488C258.316 54.6986 258.343 56.3939 258.343 58.1348C258.343 59.8665 258.261 61.8307 258.097 64.0273C258.562 64.2005 259.127 64.2871 259.792 64.2871C260.467 64.2871 261.31 64.2005 262.321 64.0273C262.394 58.6042 262.431 55.3594 262.431 54.293C262.431 53.2266 262.394 52.429 262.321 51.9004C262.221 50.7337 262.043 49.9499 261.788 49.5488C261.633 49.5397 261.396 49.5352 261.077 49.5352C259.099 49.5352 257.454 49.9043 256.142 50.6426C256.133 50.7246 256.128 50.8385 256.128 50.9844C256.128 51.1211 256.16 51.3262 256.224 51.5996C256.789 51.6452 257.226 51.7181 257.536 51.8184Z" fill="white"></path><path d="M267.155 59.5977C266.763 59.5977 266.462 59.6159 266.252 59.6523C265.651 59.7799 265.282 60.0944 265.145 60.5957C264.981 61.1882 265.095 61.7715 265.487 62.3457C265.633 62.5645 265.81 62.7741 266.02 62.9746C266.239 63.1751 266.512 63.3665 266.84 63.5488C267.178 63.7311 267.67 63.9316 268.317 64.1504C268.964 64.3691 269.921 64.4785 271.188 64.4785C273.102 64.4785 274.633 64.1139 275.782 63.3848C276.939 62.6465 277.518 61.5938 277.518 60.2266C277.518 58.6497 276.493 57.3646 274.442 56.3711C274.114 56.207 273.366 55.8926 272.2 55.4277C271.042 54.9629 270.258 54.5436 269.848 54.1699C269.447 53.7962 269.247 53.3268 269.247 52.7617C269.247 52.1875 269.411 51.7546 269.739 51.4629C270.076 51.1621 270.532 51.0117 271.106 51.0117C272.765 51.0117 273.594 51.8639 273.594 53.5684V53.7188C273.594 53.737 273.74 53.8281 274.032 53.9922C274.323 54.1471 274.829 54.2246 275.549 54.2246C276.561 54.2246 277.067 53.7051 277.067 52.666C277.067 51.7363 276.534 50.9525 275.467 50.3145C274.41 49.6764 273.111 49.3574 271.571 49.3574C269.228 49.3574 267.565 49.9544 266.581 51.1484C266.061 51.7865 265.801 52.5703 265.801 53.5C265.838 55.5508 267.369 57.1185 270.395 58.2031C270.732 58.3307 270.997 58.431 271.188 58.5039C272.336 58.9505 273.043 59.4199 273.307 59.9121C273.663 60.5775 273.708 61.2201 273.444 61.8398C273.134 62.5143 272.478 62.8516 271.475 62.8516C270.472 62.8516 269.752 62.5781 269.315 62.0312C269.114 61.7852 268.964 61.5163 268.864 61.2246C268.773 60.9329 268.727 60.6868 268.727 60.4863C268.727 60.2858 268.732 60.1491 268.741 60.0762C268.084 59.7572 267.556 59.5977 267.155 59.5977Z" fill="white"></path><path fill-rule="evenodd" clip-rule="evenodd" d="M285.797 61.3613C284.903 60.5319 284.32 59.4427 284.047 58.0938L292.195 57.4785C293.225 57.3965 293.74 56.5762 293.74 55.0176C293.74 54.1061 293.558 53.2904 293.193 52.5703C292.838 51.8411 292.359 51.2487 291.758 50.793C290.509 49.8724 289.032 49.4121 287.328 49.4121C285.386 49.4121 283.664 50.0638 282.16 51.3672C281.44 51.987 280.861 52.7845 280.424 53.7598C279.986 54.7259 279.767 55.806 279.767 57C279.767 58.194 279.982 59.2832 280.41 60.2676C280.838 61.2428 281.417 62.0312 282.146 62.6328C282.885 63.2344 283.719 63.6901 284.648 64C285.578 64.319 286.476 64.4785 287.342 64.4785C288.217 64.4785 288.987 64.3919 289.652 64.2188C291.293 63.7995 292.532 63.1022 293.371 62.127C293.271 61.7168 292.993 61.3613 292.537 61.0605C291.325 62.0905 290.121 62.6055 288.927 62.6055C287.733 62.6055 286.69 62.1908 285.797 61.3613ZM289.16 52.0645C289.761 52.6751 290.062 53.5228 290.062 54.6074C290.062 54.9082 290.035 55.2227 289.98 55.5508C288.148 55.8242 286.097 56.084 283.828 56.3301C283.828 54.7077 284.079 53.4408 284.58 52.5293C285.081 51.6087 285.819 51.1484 286.795 51.1484C287.77 51.1484 288.558 51.4538 289.16 52.0645Z" fill="white"></path></svg>